<svg width="18" height="18" viewBox="0 0 18 18" fill="none" xmlns="http://www.w3.org/2000/svg">
<path d="M0 9C0 4.02944 4.02944 0 9 0C13.9706 0 18 4.02944 18 9C18 13.9706 13.9706 18 9 18C4.02944 18 0 13.9706 0 9Z" fill="url(#paint0_linear_367_208)"/>
<path d="M0.25 9C0.25 4.16751 4.16751 0.25 9 0.25C13.8325 0.25 17.75 4.16751 17.75 9C17.75 13.8325 13.8325 17.75 9 17.75C4.16751 17.75 0.25 13.8325 0.25 9Z" stroke="#3A3A79" stroke-opacity="0.25" stroke-width="0.5"/>
<path d="M9.284 4.552C9.748 4.552 10.24 4.584 10.76 4.648C11.288 4.712 11.784 4.824 12.248 4.984L12.02 6.64C11.78 6.632 11.496 6.628 11.168 6.628C10.848 6.628 10.512 6.628 10.16 6.628C9.808 6.62 9.46 6.616 9.116 6.616C8.98 6.616 8.864 6.624 8.768 6.64C8.672 6.648 8.592 6.664 8.528 6.688C8.464 6.712 8.412 6.748 8.372 6.796C8.34 6.836 8.316 6.888 8.3 6.952C8.292 7.008 8.296 7.064 8.312 7.12C8.336 7.176 8.388 7.232 8.468 7.288C8.548 7.344 8.668 7.412 8.828 7.492L10.22 8.152C10.676 8.368 11.02 8.596 11.252 8.836C11.484 9.076 11.632 9.352 11.696 9.664C11.768 9.968 11.78 10.324 11.732 10.732C11.66 11.364 11.504 11.86 11.264 12.22C11.024 12.572 10.664 12.82 10.184 12.964C9.712 13.1 9.076 13.168 8.276 13.168C7.932 13.168 7.464 13.136 6.872 13.072C6.288 13.016 5.68 12.908 5.048 12.748L5.288 10.936C5.752 10.944 6.18 10.956 6.572 10.972C6.972 10.98 7.308 10.988 7.58 10.996C7.852 10.996 8.04 10.996 8.144 10.996C8.392 10.996 8.584 10.984 8.72 10.96C8.864 10.936 8.968 10.9 9.032 10.852C9.104 10.796 9.148 10.728 9.164 10.648C9.18 10.576 9.176 10.516 9.152 10.468C9.136 10.42 9.096 10.376 9.032 10.336C8.968 10.288 8.88 10.236 8.768 10.18L7.256 9.436C6.792 9.204 6.444 8.96 6.212 8.704C5.98 8.44 5.832 8.156 5.768 7.852C5.704 7.548 5.692 7.228 5.732 6.892C5.788 6.436 5.896 6.056 6.056 5.752C6.224 5.448 6.452 5.212 6.74 5.044C7.028 4.868 7.384 4.744 7.808 4.672C8.232 4.592 8.724 4.552 9.284 4.552Z" fill="white"/>
<defs>
<linearGradient id="paint0_linear_367_208" x1="9" y1="-1.76464e-09" x2="9" y2="18" gradientUnits="userSpaceOnUse">
<stop stop-color="#222259"/>
<stop offset="0.9999" stop-color="#111136"/>
</linearGradient>
</defs>
</svg>
